<?xml version="1.0" encoding="utf-8"?>
<!-- Generator: Adobe Illustrator 25.4.1, SVG Export Plug-In . SVG Version: 6.00 Build 0)  -->
<svg version="1.1" id="Layer_1" xmlns="http://www.w3.org/2000/svg" xmlns:xlink="http://www.w3.org/1999/xlink" x="0px" y="0px"
	 viewBox="0 0 800 170" style="enable-background:new 0 0 800 170;" xml:space="preserve">
<style type="text/css">
	.st0{fill:#101820;}
</style>
<g id="Layer_1_00000142863392546731432980000011135583015054663040_">
	<g id="svg_51">
		<g id="svg_41" transform="matrix(3.27559 0 0 3.27559 -104470 -79288)">
			<g id="svg_42">
				<path id="svg_43" class="st0" d="M31900,24257.1h-5.7v-50.6h5.7V24257.1z"/>
			</g>
			<g id="svg_44">
				<path id="svg_45" class="st0" d="M31954.4,24257.1h-6l-0.2-0.3c-2.6-3.8-22.3-33.1-27.8-41.2v41.5h-5.7v-50.6h5.7l0.2,0.3
					c2.6,3.8,22.6,33.3,28,41.5v-41.9h5.7L31954.4,24257.1L31954.4,24257.1L31954.4,24257.1z"/>
			</g>
			<g id="svg_46">
				<path id="svg_47" class="st0" d="M32066,24257h-12.6v-50.5h12.6c13.9,0,25.3,11.3,25.3,25.3
					C32091.2,24245.7,32079.9,24257,32066,24257z M32059.2,24251.3h6.8c10.8,0,19.5-8.8,19.5-19.5s-8.7-19.5-19.5-19.5h-6.8V24251.3
					z"/>
			</g>
			<polygon id="svg_48" class="st0" points="32009.2,24206.5 31974.7,24249.9 31974.7,24206.5 31969.1,24206.5 31969.1,24257.1 
				31975.2,24257.1 32015.2,24206.5 			"/>
			<polygon id="svg_49" class="st0" points="32032.6,24206.5 31992.5,24257.1 31998.6,24257.1 32033.1,24213.7 32033.1,24257.1 
				32038.7,24257.1 32038.7,24206.5 			"/>
			<polygon id="svg_50" class="st0" points="32136.7,24206.5 32102.5,24206.5 32102.5,24257.1 32136.7,24257.1 32136.7,24252 
				32108.2,24252 32108.2,24234.3 32133.3,24234.3 32133.3,24229.3 32108.2,24229.3 32108.2,24211.6 32136.7,24211.6 			"/>
		</g>
	</g>
</g>
</svg>
