<svg width="800" height="600" xmlns="http://www.w3.org/2000/svg" style="vector-effect: non-scaling-stroke;" stroke="null">
 <!-- Created with Method Draw - http://github.com/duopixel/Method-Draw/ -->

 <g stroke="null" id="Layer_1">
  <title stroke="null">Layer 1</title>
  <style style="vector-effect: non-scaling-stroke;" stroke="null" type="text/css">.st0{fill:#101820;}</style>
  <style type="text/css">.st0{fill:#101820;}</style>
  <g stroke="null" id="svg_51">
   <g stroke="null" transform="matrix(3.27559 0 0 3.27559 -104470 -79288)" id="svg_41">
    <g stroke="null" id="svg_42">
     <path stroke="null" id="svg_43" d="m31900.14764,24309.72471l-5.7,0l0,-50.6l5.7,0l0,50.6z" class="st0"/>
    </g>
    <g stroke="null" id="svg_44">
     <path stroke="null" id="svg_45" d="m31954.54764,24309.72471l-6,0l-0.2,-0.3c-2.6,-3.8 -22.3,-33.1 -27.8,-41.2l0,41.5l-5.7,0l0,-50.6l5.7,0l0.2,0.3c2.6,3.8 22.6,33.3 28,41.5l0,-41.9l5.7,0l0.1,50.7l0,0z" class="st0"/>
    </g>
    <g stroke="null" id="svg_46">
     <path stroke="null" id="svg_47" d="m32066.14764,24309.62471l-12.6,0l0,-50.5l12.6,0c13.9,0 25.3,11.3 25.3,25.3c-0.1,13.9 -11.4,25.2 -25.3,25.2zm-6.8,-5.7l6.8,0c10.8,0 19.5,-8.8 19.5,-19.5c0,-10.7 -8.7,-19.5 -19.5,-19.5l-6.8,0l0,39z" class="st0"/>
    </g>
    <polygon stroke="null" id="svg_48" points="32009.348387777805,24259.12502861023 31974.848387777805,24302.52346611023 31974.848387777805,24259.12502861023 31969.246825277805,24259.12502861023 31969.246825277805,24309.72268486023 31975.348387777805,24309.72268486023 32015.348387777805,24259.12502861023 " class="st0"/>
    <polygon stroke="null" id="svg_49" points="32032.746825277805,24259.12502861023 31992.647215902805,24309.72268486023 31998.746825277805,24309.72268486023 32033.246825277805,24266.32424736023 32033.246825277805,24309.72268486023 32038.848387777805,24309.72268486023 32038.848387777805,24259.12502861023 " class="st0"/>
    <polygon stroke="null" id="svg_50" points="32136.848387777805,24259.12502861023 32102.647215902805,24259.12502861023 32102.647215902805,24309.72268486023 32136.848387777805,24309.72268486023 32136.848387777805,24304.62502861023 32108.348387777805,24304.62502861023 32108.348387777805,24286.92385673523 32133.446044027805,24286.92385673523 32133.446044027805,24281.92385673523 32108.348387777805,24281.92385673523 32108.348387777805,24264.22268486023 32136.848387777805,24264.22268486023 " class="st0"/>
   </g>
  </g>
 </g>
</svg>